<svg version="1.1" id="Layer_1" xmlns="http://www.w3.org/2000/svg" viewBox="0 0 600 600"><path d="M223.65 378.9a1520.6 1520.6 0 0 0 19.85-9.16c.85-.51 1.52-.98 2.01-1.38.49-.4.92-.93 1.29-1.57s3.47-1.43 3.48-2.37c.13-9.99 3.3-19.97 3.3-29.96v-.17c0-.94-3.18-1.55-3.78-1.85-.24-.12-3.44-.15-3.8-.1-.36.06-.66.08-.9.08-.36.06-.66.14-.91.25-6.54 3.08-13.07 6.1-19.61 9.06-.24.11-.58.32-1 .63-.43.31-.64.81-.65 1.51-.17 11.46-.35 22.92-.52 34.37-.01.35.11.59.35.71.1.19.41.17.89-.05zM385.84 94.46c.4.87.61 1.78.8 2.66.24-2.5-.14-5.76-1.57-7.71-1.83-2.52-4.11-3.5-7.62-3.59-6-.16-13.78 6.23-23.23 13.16-7.93 5.8-15.99 10.82-24.73 16.17 30.8-17.55 49.35-35.74 56.35-20.69zM424.77 287.9c-5.9.95-15.66 4.94-19.27 9.33-2.99 3.63-5.64 11.87-6.13 16.47-.55 5.15-.39 10.32-.39 15.46-.01 4.25 4.17 5.86 8.63 4.01 5.69-2.37 11.29-4.66 16.99-6.86 1.11-.43 1.25-1.38 1.25-2.44 0-7.17-.39-14.33-.39-21.5 0-1.57 1.56-2.92 1.56-3.58v-.89c0-.08-1.56-.29-1.56-1.97 0-2.27.76-4.55.76-6.82-.01-1.05-.29-1.4-1.45-1.21zM489.7 280.57c-.09 5.29.83 10.46 1.25 15.7.34 4.32 4.73 6.48 9.25 5.13 5.77-1.72 11.55-3.31 17.34-4.73 1.13-.28 1.57-1.24 1.48-2.32-.6-7.3-1.2-14.59-1.79-21.89-.13-1.6 1.38-2.75 2.14-3.3-.02-.3-.05-.6-.07-.9-.82-.2-2.47-.63-2.61-2.35l-.57-6.94c-.09-1.08-.65-1.68-1.78-1.4-5.77 1.41-24.34 6.31-24.64 23zM309.96 354.59c-.04 5-.08 10.01-.13 15.01-.04 4.53 3.86 6.81 8.62 4.48 4.69-2.31 9.38-4.6 14.07-6.89 1.19-.58 2.76-2.78 2.77-3.91.05-7.17.11-14.33.15-21.5.01-1.68.85-2.88 1.67-3.67 0-.32.02-.63.03-.95-.82 0-1.59-.46-1.58-2.25.02-2.43.11-4.85.13-7.28.01-1.13-1.39-.99-2.57-.42-4.68 2.28-9.03 4.57-13.7 6.87-4.64 2.28-8.02 7.56-8.02 12.04V346.41c0 2.47-.71 3.55-2.36 4.83 0 .32-.69.63-.69.95.81.02 1.62.5 1.61 2.4zM61.2 362.51c-4.21-.3-7.02 1.86-6.19 4.34.18.53.38.98.6 1.38-.05-.3-.1-.61-.14-.95-.43-3.61 3.69-4.38 6.78-4.04 8.09.9 21.87-.27 30.24-1.17l-8.07.64c-7.56.49-15.08.38-23.22-.2z"/><path class="st0" d="M299 0C133.87 0 0 133.87 0 299s133.87 299 299 299 299-133.87 299-299S464.13 0 299 0zm230.75 170.03c2.79-1.01 4.48 1.82 4.6 3.27 0 .05.01.11.01.16 0 0 4.41 58.76 6.74 85.69.37 2.3 1.17 5.07 5.14 4.48.05.62.1 1.23.16 1.85-4.76.7-4.75 3.81-4.57 6.15.79 9.09 1.05 15.24 1.08 15.35.1.44.29.59.66.76.64.47 1.48.3 2.55.14.35-.05.69-.11 1.04-.16.24-.04.59.29.84.37.25.08.57.44.75.47.18.03.56.12.81.31.66.7 1.34 1.35 1.39 2.03l.03.34c.56 6.59 1.11 13.18 1.67 19.77.05.56-.43 1.14-.8 1.82-.36.67-1.4 1.05-2.48 1.21-2.78.41-5.56.87-8.34 1.36-3.69.65-6.46.14-8.26-1.1-.25-.18-.48-.34-.69-.64-.21-.3-.44-.56-.69-.74-.51 1.14-1.41 2.29-2.7 3.54-1.29 1.25-3.48 2.14-6.57 2.87-8.31 1.98-16.59 4.28-24.86 6.87-6.62 2.07-12.28 2.43-17.01.75-.26-.14-.55-.21-.93-.36-.38-.16-.67-.37-.94-.62-2.02-1.13-3.63-2.56-4.92-4.29a22.93 22.93 0 0 1-2.85-5.11c-.67-1.66-.95-3.19-1.17-4.44-.22-1.26.01-2.07 0-2.18-.49-6.33-.86-12.68-1.48-18.99-.17-1.74-.49-3.31-4.16-3-.05-.62-.1-1.24-.14-1.85 3.31-.64 3.44-3.56 3.47-5.83.04-2.95.38-11.6 3.81-21.24 2.22-6.24 9.93-15.66 35.94-22.2 4.54-1.14 7.12-.78 7.19-.79-.81-9.87-2.08-29.01-3.14-43.34-.92-11.14-21.44.15-53.77 14.22 34.63-17.85 64.51-33.96 72.59-36.9zm-82.09 44.17v.16s-.34 44.69-.21 71.12c.18 2.22 4.34 4.6 4.34 3.59v1.82c0 1.27-3.22 4.58-3.23 6.88.05 8.92 1.48 14.97 1.49 15.08.06.42.25.54.6.65.59.36 1.44.05 2.49-.29.34-.11.76-.22 1.1-.34.23-.08.69.19.93.23.23.03.84.34 1.01.34.17 0 1.17.03 1.4.18.59.58 2.47 1.14 2.47 1.8v.33c0 6.47-1.33 12.94-1.31 19.41 0 .55-1.79 1.18-2.2 1.92-.4.74-1.36 1.26-2.41 1.61-2.72.89-5.44 1.81-8.16 2.75-3.61 1.25-6.24 1.17-7.88.21-.23-.14-.44-.26-.61-.53-.18-.27-.38-.5-.61-.63-.58 1.21-1.54 2.49-2.89 3.92-1.34 1.44-3.53 2.63-6.56 3.79-8.17 3.12-16.33 6.43-24.5 9.88-6.54 2.76-12.02 3.65-16.44 2.4-.23-.12-.51-.16-.86-.28-.35-.12-.62-.3-.85-.53-1.86-.94-3.3-2.23-4.4-3.83-1.1-1.61-1.83-3.23-2.35-4.83-.52-1.59-.66-3.06-.78-4.28-.11-1.22.17-2.01.17-2.12.02-6.22.21-12.44.23-18.66.01-2.1-4.31-3.84-4.31-2.06v-1.82c0-1.43 4.03-4.4 4.33-6.62.43-3.13 1.75-15.8 6.14-23.83 1.55-2.84 7.82-8.52 12.29-11.67 11.66-8.21 29.96-13.39 30.03-13.41 0-7.86-.02-19.59.02-29.99-.1-8.42-9.09-5.98-33.49 6.73-25.78 13.42-44.15 22.64-82.63 38.46 53.88-23.82 113.38-63.63 134.92-70.1 2.89-.87 2.72 1.13 2.72 2.56zM285.09 382.31c-.09-6.44-.39-13.09-.5-13.7-.11-.74-.9-3.29-5.01-1.27.01-.65.01-1.3.02-1.94 4.11-2.01 4.69-4.86 5.13-6.33.43-1.45.71-5.38.73-7.61l-.03 3.28c.04-4.21.95-9.35 2.32-13 1.37-3.64 3.26-7.06 5.29-9.98 2.03-2.92 4.21-5.57 6.54-7.77 2.33-2.2 4.5-4.21 6.52-5.67 2.02-1.46 4.36-2.8 7.05-4.91 5.16-2.54 10.32-5.08 15.48-7.6.12-.06.87-.08 2.28-.71 1.4-.62 4.01-.74 4.88.05.01-.92.31-1.81.91-2.4.6-.6 1.12-1.41 1.55-1.62 7.23-3.51 14.46-6.97 21.69-10.38.11-.05.36.13.8.03.43-.1.8.23 1.12.5.22.11.38.23.54.37.16.13.2.48.19.99l.09.42c-.03 7.44-.07 14.89-.1 22.33l-.03 5.43c-.01 1.38.66 3.47 4.83 1.48 0 .61-.01 1.22-.01 1.83-3.93 2.06-4.85 4.28-4.87 6.52-.01 1.45-.01 2.9-.02 4.35l-.06 12.18c-.01 1.38.75 2.51 4.48.77 3.23-1.5 4.55.36 4.55 1.2-.03 7.02-.05 14.04-.08 21.06-.01 2.17-2.42 3.82-4.92 4.99-1.8.83-7.92 3.71-7.92 3.71-3.85 1.82-6.64 2.02-8.37 1.2-.24-.12-.46-.25-.65-.52s-.4-.48-.64-.59c-.63 1.36-1.66 2.85-3.09 4.54s-3.77 3.25-7 4.82c-8.65 4.19-17.3 8.44-25.95 12.7-6.96 3.43-12.79 4.66-17.48 3.56-.25-.11-.56-.17-.93-.28a2.23 2.23 0 0 1-.93-.52c-1.97-.91-3.53-2.2-4.69-3.87-1.16-1.67-2.01-3.34-2.55-5.02-.54-1.68-.87-3.16-.99-4.46-.11-1.3-.19-2-.19-2.12.05-4.56.09-9.13.14-13.69-.03 2.56-.07 5.11-.12 7.65zM248.48 238.6c.03 1.86-.73 3.08-1.5 3.84.01.33.01.65.02.98.78.05 1.58.54 1.61 2.28.22 11.93.44 23.87.65 35.8l.15 8.45c.04 2.45-.67 4.38-3.29 5.54-6.64 2.68-13.28 5.31-19.93 7.89-3.02 1.29-4.17.27-4.21-2.3l-.96-41.87c-.04-2.65-1.21-3.18-3.56-2.77-.01-.47-.02-.94-.02-1.42 2.32-1.56 3.86-3.51 3.82-5.99-.15-9.54-.31-19.09-.46-28.63-.03-1.97 1.36-3.94 2.97-4.62 6.35-2.7 12.69-5.47 19.03-8.27 2.93-1.3 5.03-.66 5.07 1.28 0 0 .59-4.58 8.44-8.11 2.56-1.15 5.12-2.31 7.68-3.47 12.46-5.65 27.05-.36 27.65 24.14-6.35 2.9-12.69 5.81-19.04 8.7-.26-9.47-3.7-11.09-9.49-8.47-2.15.98-4.31 1.95-6.46 2.92-7.25 3.26-8.31 6.37-8.23 11.18l.06 2.92zm72.5-80.18c.16 7.46-5.74 13.56-13.16 13.61-7.43.05-13.58-5.96-13.73-13.42-.01-.39.01-.78.03-1.17.93-2.99 2.93-5.66 5.86-7.38 5.33-3.12 11.96-2.04 15.98 2.21-2.21-2.76-5.33-4.58-7.62-5.07-10.83-2.29-12.92 10.17-39.82 20.34-.49.19-.85.34-1.1.47-4.96 1.94-10.76 4.02-17.55 6.22 16.63-5.54 28.92-10.94 39.12-18.69 3.84-2.92 7.32-6.91 11.72-9.01 1.82-.87 3.53-1.29 5.09-1.44l.35-.03c.25-.02.5-.04.75-.04.12 0 .23-.02.35-.02.14 0 .27.01.4.02.09 0 .18.01.27.01.49.02.97.07 1.45.14.09.01.19.03.28.04.19.03.38.07.56.11 1.88.4 3.02 1.03 3.02 1.03s-.01.01-.01.02c4.49 2.17 7.64 6.73 7.76 12.05zm5.9 97.72c.03 1.17-.27 2.07-.9 2.7-.63.63-1.23 1.08-1.81 1.34-6.98 3.12-13.96 6.28-20.95 9.46-.12.05-.38.14-.78.27-.41.13-.85.06-1.32-.2-.47-.26-.72-.85-.74-1.79-.29-13.34-.59-26.69-.89-40.03-.13-.77-.27-1.47-.4-2.13-.13-.65-.32-1.21-.56-1.7-.24-.13-.42-.31-.54-.55a1.27 1.27 0 0 0-.55-.55c-.12-.12-.26-.25-.38-.37-1.05-.35-1.86-.47-2.32-.38-.46.1-.34.19-1.13.3l-.03-1.41c1.56-.76 2.12-1.55 2.74-2.36.62-.81 1.29-1.91 1.85-3.28.55-1.37.86-3.14.93-5.3-.17-7.46-.33-14.92-.49-22.39-.05-2.4.68-5.07 4.02-6.59 6.02-2.73 12.05-5.44 18.07-8.13 2.6-1.16 4.15-.09 4.21 2.36l.54 22.49c.08 3.28.88 5.34 2.42 6.2.83.58 1.87.65 3.14.21.01.47.02.94.04 1.4-.06.02-.12.05-.17.08-.23.1-.63.4-1.2.88-.57.49-1.13 1.15-1.69 1.99-.56.84-1.06 1.95-1.49 3.32-.43 1.37-.62 3.06-.58 5.04.33 13.04.65 26.08.96 39.12zm32.96-73.62c.04.5.07.99.11 1.49.23 3.12 1.08 3.42 4.81 1.62 2.4-1.17 4.81-2.33 7.21-3.48 11.83-5.59 17.84-3.1 18.88 10.28.47 6.5.94 12.99 1.42 19.49.67 10.47-4.51 20.38-15.74 25.69-10.6 5.02-21.17 10.28-31.74 15.69-.15.08-.31.16-.46.24-.08.04-.25.11-.52.21-.27.1-.57.07-.9-.09-.33-.16-.52-.56-.57-1.2-.49-6.65-.98-13.3-1.46-19.95-.05-.72.12-1.31.53-1.76.4-.46.76-.76 1.07-.92 7.09-3.63 14.18-7.2 21.28-10.67 3.73-1.82 6-4.86 5.85-6.87l-.12-1.58c-.16-2.09-2.87-2.35-6.41-.61-2.13 1.04-4.27 2.09-6.4 3.15-10.58 5.27-17.18 2.12-18.07-10.09l-1.23-18.39c-.22-2.95 0-5.64.66-8.04.66-2.41 1.56-4.61 2.72-6.61 1.16-2 2.44-3.73 3.84-5.18 1.4-1.45 2.72-2.65 3.95-3.61 1.24-.95 2.73-1.94 4.47-2.98 10.62-5.27 21.26-10.35 31.92-15.13 1.36-.61 2.03.12 2.13 1.34l1.41 18.37c.09 1.14-.65 2.6-2.14 3.27-7.43 3.33-14.84 6.81-22.25 10.39-3.71 1.76-4.48 2.91-4.25 5.93zm-.27-91.67s24.21-20.48 34.07 4.34c7.71 19.42-25.89 34.03-36.55 38.58-9.74 4.16-25.76 9.83-34.95 14.2 4.32 7.08 2.07 17.29-2.05 21.62 2.59-3.68 3.47-9.82 2.23-15.16-.39-1.68-1.1-3.17-1.87-4.41-3.81-5.54-10.66-9-18.24-6.8-17.18 4.98-8.05 20.15-109.05 43.24-82.78 17.83-149.82 23.48-149.82 23.48 186.19-24.86 266-82.28 316.23-119.09zm-146.8 215.54c.03 2.2-1.17 3.91-3.43 4.83-6.58 2.69-13.16 5.29-19.74 7.8-1.95.74-2.56-.78-2.58-2.27l.21-42.31c-.02-1.22-.03-2.44-.05-3.67-.02-1.63.84-2.7 1.52-2.97 0-.26-.01-.52-.01-.77-.69.26-1.57-.16-1.59-1.7-.09-6.45-3.36-11.11-8.37-9.28-3.38 1.23-6.75 2.43-10.13 3.6-4.44 1.53-5.71 6.07-5.67 9.3.02 1.4.03 2.8.05 4.19.02 1.82-.75 2.95-1.52 3.61 0 .32.01.64.01.96.78.13 1.57.69 1.59 2.39.01.45.01.91.02 1.36.01.53.01 1.06.02 1.59-.1 14.04-.2 28.09-.29 42.13.02 1.83-.91 3.72-3.21 4.48-6.24 2.04-12.5 3.96-18.74 5.75-2.32.66-3.87-.17-3.91-3.45.13-13.66.2-27.33.33-40.99 0-.37-.11-.73-.12-1.1-.02-2.27-.25-4.07-4.15-3.25-.01-.62-.44-1.24-.44-1.85 3.9-1.02 3.03-3.47 3.01-4.87-.02-1.84-1.75-3.68-1.75-5.51v-.11c0-21.59 1.21-43.19 1-64.78-.01-1.02 1.88-1.8 2.48-2.31.6-.51.97-1.02 1.41-1.14 6.68-1.9 13.13-3.96 19.81-6.16.11-.04.03-.07.47-.1.44-.03.08.11.53.41.44.31-.92.8-.92 1.59v.51c0 12.37 2.06 24.74 2.21 37.11 0 .35 1.85 2.67 1.86 3.14.45-2.11 1.67-3 3.8-3.73 1.33-.35 21.34-7.59 24.21-8.84 10.13-4.03 16.03-3.1 18.14.55 2.65 4.56 3.35 7.91 3.41 12.16 0 0-.17 8.31-.15 9.63.04 2.77.63 4.79 3.03 3.79.01.49.02.97.02 1.46-2.41 1.24-3.08 2.93-3.04 5.64.22 14.41.45 28.8.67 43.18zM52.56 304.6c-.24-.22-.42-.51-.55-.85-.13-.35-.31-.63-.55-.85l-.36-.33c-1.08-.76-1.86-1.2-2.33-1.29-.48-.09-.83-.14-1.07-.13-.01-.47-.02-.94-.02-1.42 1.06-.29 1.91-.66 2.55-1.11.64-.45 1.22-1.19 1.74-2.23.51-1.03.87-2.45 1.08-4.24-.03-1.6-.05-3.19-.08-4.79-.22-12.94-.44-25.88-.67-38.82-.1-5.55.83-10.08 2.79-13.6 1.95-3.52 4.27-6.32 6.96-8.43 2.68-2.11 5.38-3.69 8.08-4.75s4.75-1.77 6.17-2.1c.24-.04.47-.1.71-.2.23-.09.47-.16.71-.2.17-.03.35-.05.52-.08 8.43-1.31 16.85-2.96 25.25-4.9.11-.03.81-.13 2.09-.31 1.28-.18 2.88-.27 4.8-.28 1.92 0 3.97.24 6.13.73 2.17.49 4.25 1.4 6.27 2.73.83.6 1.42 1.08 1.78 1.45 3.57 3.49 5.44 8.56 5.6 15.29l.24 10.62c.03 1.18-.31 2.05-.99 2.61-.69.56-1.26.91-1.73 1.04a419.53 419.53 0 0 1-20.57 5.48c-.06.01-.12.03-.18.04-.12.03-.23.06-.35.08-.82.19-1.52.09-2.11-.31-.59-.4-.9-1.07-.92-2.01-.04-2.13-.09-4.25-.13-6.38-.02-1.18-.34-1.94-.93-2.28-.71-.31-1.24-.49-1.59-.53-.35-.04-.64-.04-.87.02a345.25 345.25 0 0 1-16.91 3.29c-.12.02-.75.31-1.91.85s-1.72 1.7-1.68 3.47c.23 22.89.47 45.78.7 68.67.02 1.06.33 1.85.93 2.34.24.2.53.33.89.39.35.06.65.13.89.21.35.06.65.07.88.03 5.68-.95 11.35-2.04 17.01-3.27.12-.03.72-.33 1.83-.94 1.1-.6 1.64-1.79 1.6-3.56-.04-2.13-.09-4.25-.13-6.38-.02-1.06 1.08-2.05 1.71-2.62.63-.56 1.24-.91 1.83-1.05 7.06-1.68 14.12-3.56 21.17-5.62.23-.07.47-.08.7-.03.24.05.47.07.71.06.23-.01.47.07.71.23.48.33-.06 1.21-.04 2.15 0 .18.01.35.01.53.14 3.35.27 6.69.41 10.04.1 4.37-.46 8.22-1.67 11.55-1.22 3.33-2.77 6.27-4.65 8.82-1.88 2.55-3.92 4.65-6.12 6.31-2.2 1.65-4.26 2.95-6.18 3.9-1.92.95-4.17 1.85-6.74 2.68a355.22 355.22 0 0 1-25.68 4.95c-.12.02-.24.04-.36.05-.6.09-1.07.1-1.43.04-1.55.11-3.88.01-6.99-.37-3.11-.38-6.18-1.61-9.2-3.69-.48-.31-.91-.62-1.27-.95-.36-.32-.79-.7-1.27-1.13-4.37-4-6.62-9.91-6.75-17.59.17-5.51.35-11.02.52-16.53-.05-1.6-.37-3.12-.99-4.5zm6.93 65.81c-3.26.23-6.64-.33-5.59-5.07.83-3.74 5.22-3.72 8.01-3.67 17.18.33 38.94 5.23 133.78-33.93.67-.3 1.55-.67 2.64-1.11 16.78-7.04 33.58-14.68 50.37-22.64.12-.06.87-.35 2.26-.9 1.39-.54 3.08-1.03 5.06-1.46 1.99-.43 4.12-.65 6.4-.65 2.28 0 4.38.46 6.29 1.37.36.06.69.19.99.39.3.2.57.36.81.48 3.45 2.71 5.15 7.32 5.08 13.82-.15 13.72-.31 27.43-.46 41.15-.03 3.02-.58 5.46-1.62 7.3-1.05 1.84-2.12 3.32-3.22 4.43.24.12.54.17.9.17s.66.05.9.17c1.68.8 2.62 2.94 2.83 6.42l-.44 38.76c-.01 1.05-.36 1.94-1.03 2.67-.68.74-1.32 1.25-1.93 1.55-7.14 3.48-21.65 11.08-21.78 11.14-.73.35-1.52.44-2.37.26-.24-.11-.39-.25-.45-.39-.06-.15-.15-.3-.27-.48a.972.972 0 0 1-.17-.61l.42-31.94c.01-1.05-.28-1.72-.88-2.01-.24-.23-.6-.26-1.09-.09-.49.17-.85.26-1.09.25-6.81 3.21-13.62 6.36-20.43 9.44-.25.23-.49.45-.73.68-.49.46-.74.97-.75 1.55-.17 11.24-.43 23.36-.43 34.6 0 4.03-1.2 5.21-3.14 6.31-7.02 3.97-20.64 13.03-20.91 13.22-1.99 1.33-3.73-.91-3.73-2.6 0-.41.29-31.84.52-44.84.03-1.86-.37-3.42-.94-4.68-.24-.13-.41-.32-.53-.56-.12-.24-.28-.43-.52-.56-.12-.06-.15-.13-.15-.19s-.01-.12-.13-.19c-1.08-.36-1.77-.51-2.25-.43-.48.08-.9.18-.9.26.01-.47.02-.93.02-1.4.82-.7 2.01-1.52 2.75-2.41.74-.88 1.23-2.02 1.86-3.44.63-1.41.96-3.23 1-5.45.27-15.57.54-31.13.8-46.7-1.06-12.85-43.71 1.55-64.61 7.53-40.21 11.51-52.82 13.18-71.15 14.48zm151.87 138.02s-18.36 18.71-26.74 4.07c-9.85-17.21 22.98-40.61 22.98-40.61C357.22 368.8 566.7 324.67 566.7 324.67c-205.53 59.08-311.34 142.16-355.34 183.76z"/><path class="st0" d="M212.29 471.87s-34.31 23.62-24.34 40.81c.01.01.01.02.02.03-12.36-24.76 63.5-65.63 138.15-102.54 45.15-22.32 116.64-49.04 151.98-60.6-94.01 30.76-182.42 65.87-265.81 122.3zM136.65 351.37c.11-.04.22-.07.34-.11-.11.03-.22.07-.33.1l-.01.01z"/></svg>
